<svg width="29" height="26" viewBox="0 0 29 26" fill="none" xmlns="http://www.w3.org/2000/svg">
<path d="M13.9721 25.8727L13.9616 25.8683L13.9289 25.851C13.7375 25.7487 13.5476 25.6437 13.3593 25.5361C11.0956 24.2295 8.98 22.6947 7.04774 20.9571C3.62574 17.8558 0 13.2537 0 7.58552C0 3.35608 3.66441 0.00199458 8.08728 0.00199458C9.31681 -0.00385474 10.5319 0.259604 11.6421 0.772777C12.7524 1.28595 13.7292 2.03563 14.5 2.96607C15.271 2.03544 16.248 1.28564 17.3586 0.772463C18.4691 0.259282 19.6844 -0.00407225 20.9142 0.00199458C25.3356 0.00199458 29 3.35608 29 7.58552C29 13.2551 25.3743 17.8572 21.9523 20.9556C20.02 22.6933 17.9045 24.2281 15.6407 25.5346C15.4524 25.6428 15.2625 25.7482 15.0711 25.851L15.0384 25.8683L15.0279 25.8741L15.0235 25.8755C14.8622 25.9585 14.6825 26.0019 14.5 26.0019C14.3175 26.0019 14.1378 25.9585 13.9765 25.8755L13.9721 25.8727Z" fill="white"/>
<path d="M20.8933 18.9668L24.0833 12.7335H21.8833V8.70012L18.5833 14.9335H20.8933V18.9668ZM21.3333 21.1668C20.3189 21.1668 19.3656 20.9743 18.4733 20.5893C17.5811 20.2043 16.805 19.6818 16.145 19.0218C15.485 18.3618 14.9625 17.5857 14.5775 16.6935C14.1925 15.8012 14 14.8479 14 13.8335C14 12.819 14.1925 11.8657 14.5775 10.9735C14.9625 10.0812 15.485 9.30512 16.145 8.64512C16.805 7.98512 17.5811 7.46262 18.4733 7.07762C19.3656 6.69262 20.3189 6.50012 21.3333 6.50012C22.3478 6.50012 23.3011 6.69262 24.1933 7.07762C25.0856 7.46262 25.8617 7.98512 26.5217 8.64512C27.1817 9.30512 27.7042 10.0812 28.0892 10.9735C28.4742 11.8657 28.6667 12.819 28.6667 13.8335C28.6667 14.8479 28.4742 15.8012 28.0892 16.6935C27.7042 17.5857 27.1817 18.3618 26.5217 19.0218C25.8617 19.6818 25.0856 20.2043 24.1933 20.5893C23.3011 20.9743 22.3478 21.1668 21.3333 21.1668Z" fill="#894189"/>
<path d="M21.2667 18.5001L24.1667 12.8334H22.1667V9.16675L19.1667 14.8334H21.2667V18.5001ZM21.6667 20.5001C20.7444 20.5001 19.8778 20.3251 19.0667 19.9751C18.2556 19.6251 17.55 19.1501 16.95 18.5501C16.35 17.9501 15.875 17.2445 15.525 16.4334C15.175 15.6223 15 14.7556 15 13.8334C15 12.9112 15.175 12.0445 15.525 11.2334C15.875 10.4223 16.35 9.71675 16.95 9.11675C17.55 8.51675 18.2556 8.04175 19.0667 7.69175C19.8778 7.34175 20.7444 7.16675 21.6667 7.16675C22.5889 7.16675 23.4556 7.34175 24.2667 7.69175C25.0778 8.04175 25.7833 8.51675 26.3833 9.11675C26.9833 9.71675 27.4583 10.4223 27.8083 11.2334C28.1583 12.0445 28.3333 12.9112 28.3333 13.8334C28.3333 14.7556 28.1583 15.6223 27.8083 16.4334C27.4583 17.2445 26.9833 17.9501 26.3833 18.5501C25.7833 19.1501 25.0778 19.6251 24.2667 19.9751C23.4556 20.3251 22.5889 20.5001 21.6667 20.5001Z" fill="white"/>
</svg>
